# xmcd
#
# Track frame offsets:
#	150
#	13125
#	25869
#	39310
#	52338
#	66524
#	78870
#	94494
#	104470
#	117142
#
# Disc length: 1711 seconds
#
# Revision: 1
# Processed by: cddbd v1.5.2PL0 Copyright (c) Steve Scherf et al.
# Submitted via: EasyCDDAExtractor 12.0.4.1
#
DISCID=8506ad0a
DTITLE=Merle Haggard - Greatest Hits
DYEAR=2006
DGENRE=Country
TTITLE0=Swinging Doors
TTITLE1=Sing Me Back Home
TTITLE2=I'm A Lonesome Fugitive
TTITLE3=I Take A Lot Of Pride In What I Am
TTITLE4=Branded Man
TTITLE5=Okie From Muskogee
TTITLE6=Hungry Eyes
TTITLE7=Mama Tried
TTITLE8=The Bottle Let Me Down
TTITLE9=(My Friends Are Gonna Be) Strangers
EXTD=
EXTT0=
EXTT1=
EXTT2=
EXTT3=
EXTT4=
EXTT5=
EXTT6=
EXTT7=
EXTT8=
EXTT9=
PLAYORDER=
